# Blender v2.79 (sub 0) OBJ File: ''
# www.blender.org
mtllib spirtor.mtl
o torus
v 0.750000 0.250000 0.000000
v 0.573223 0.176777 0.000000
v 0.479521 0.095671 -0.198624
v 0.604521 0.230970 -0.250401
v 0.353553 0.000000 -0.353553
v 0.405330 0.176777 -0.405330
v 0.198624 -0.095671 -0.479521
v 0.198624 0.095671 -0.479521
v 0.000000 -0.176777 -0.573223
v 0.000000 0.000000 -0.500000
v -0.250401 -0.230970 -0.604521
v -0.198624 -0.095671 -0.479521
v -0.530330 -0.250000 -0.530330
v -0.405330 -0.176777 -0.405330
v -0.781298 -0.230970 -0.323624
v -0.604521 -0.230970 -0.250401
v -0.926777 -0.176777 0.000000
v -0.750000 -0.250000 0.000000
v -0.906298 -0.095671 0.375401
v -0.781298 -0.230970 0.323624
v -0.707107 0.000000 0.707107
v -0.655330 -0.176777 0.655330
v -0.375401 0.095671 0.906298
v -0.375401 -0.095671 0.906298
v 0.000000 0.176777 0.926777
v 0.000000 0.000000 1.000000
v 0.323624 0.230970 0.781298
v 0.375401 0.095671 0.906298
v 0.530330 0.250000 0.530330
v 0.655330 0.176777 0.655330
v 0.604521 0.230970 0.250401
v 0.781298 0.230970 0.323625
v 0.000000 0.250000 0.750000
v 0.000000 0.176777 0.573223
v 0.198624 0.095671 0.479521
v 0.250401 0.230970 0.604521
v 0.353553 0.000000 0.353553
v 0.405330 0.176777 0.405330
v 0.479521 -0.095671 0.198624
v 0.479521 0.095671 0.198624
v 0.573223 -0.176777 0.000000
v 0.500000 0.000000 0.000000
v 0.604521 -0.230970 -0.250401
v 0.479521 -0.095671 -0.198624
v 0.530330 -0.250000 -0.530330
v 0.405330 -0.176777 -0.405330
v 0.323624 -0.230970 -0.781298
v 0.250401 -0.230970 -0.604521
v 0.000000 -0.176777 -0.926777
v 0.000000 -0.250000 -0.750000
v -0.375401 -0.095671 -0.906298
v -0.323624 -0.230970 -0.781298
v -0.707107 0.000000 -0.707107
v -0.655330 -0.176777 -0.655330
v -0.906298 0.095671 -0.375401
v -0.906298 -0.095671 -0.375401
v -0.926777 0.176777 0.000000
v -1.000000 0.000000 0.000000
v -0.781298 0.230970 0.323624
v -0.906298 0.095671 0.375401
v -0.530330 0.250000 0.530330
v -0.655330 0.176777 0.655330
v -0.250401 0.230970 0.604521
v -0.323625 0.230970 0.781298
v -0.750000 0.250000 0.000000
v -0.573223 0.176777 0.000000
v -0.479521 0.095671 0.198624
v -0.604522 0.230970 0.250401
v -0.353553 0.000000 0.353553
v -0.405330 0.176777 0.405330
v -0.198624 -0.095671 0.479521
v -0.198624 0.095671 0.479521
v 0.000000 -0.176777 0.573223
v 0.000000 0.000000 0.500000
v 0.250401 -0.230970 0.604521
v 0.198624 -0.095671 0.479521
v 0.530330 -0.250000 0.530330
v 0.405330 -0.176777 0.405330
v 0.781298 -0.230970 0.323624
v 0.604521 -0.230970 0.250401
v 0.926777 -0.176777 0.000000
v 0.750000 -0.250000 0.000000
v 0.906298 -0.095671 -0.375401
v 0.781298 -0.230970 -0.323624
v 0.707107 0.000000 -0.707107
v 0.655330 -0.176777 -0.655330
v 0.375401 0.095671 -0.906298
v 0.375401 -0.095671 -0.906298
v 0.000000 0.176777 -0.926777
v 0.000000 0.000000 -1.000000
v -0.323625 0.230970 -0.781298
v -0.375401 0.095671 -0.906298
v -0.530330 0.250000 -0.530330
v -0.655330 0.176777 -0.655330
v -0.604521 0.230970 -0.250401
v -0.781298 0.230970 -0.323624
v 0.000000 0.250000 -0.750000
v 0.000000 0.176777 -0.573223
v -0.198624 0.095671 -0.479521
v -0.250401 0.230970 -0.604522
v -0.353554 0.000000 -0.353553
v -0.405330 0.176777 -0.405330
v -0.479521 -0.095671 -0.198624
v -0.479521 0.095671 -0.198624
v -0.573223 -0.176777 0.000000
v -0.500000 0.000000 0.000000
v -0.604521 -0.230970 0.250401
v -0.479521 -0.095671 0.198624
v -0.530330 -0.250000 0.530330
v -0.405330 -0.176777 0.405330
v -0.323624 -0.230970 0.781298
v -0.250401 -0.230970 0.604521
v 0.000000 -0.176777 0.926777
v 0.000000 -0.250000 0.750000
v 0.375401 -0.095671 0.906298
v 0.323624 -0.230970 0.781298
v 0.707107 0.000000 0.707107
v 0.655330 -0.176777 0.655330
v 0.906298 0.095671 0.375401
v 0.906298 -0.095671 0.375401
v 0.926777 0.176777 0.000000
v 1.000000 0.000000 0.000000
v 0.781298 0.230970 -0.323625
v 0.906298 0.095671 -0.375401
v 0.530330 0.250000 -0.530330
v 0.655330 0.176777 -0.655330
v 0.250401 0.230970 -0.604521
v 0.323624 0.230970 -0.781298
vn 0.3755 -0.9065 0.1930
vn 0.6341 -0.7063 -0.3147
vn 0.7008 -0.7000 -0.1375
vn 0.6299 -0.3825 -0.6760
vn 0.7134 -0.3812 -0.5880
vn 0.3378 0.0000 -0.9412
vn 0.4267 0.0000 -0.9044
vn -0.0887 0.3812 -0.9202
vn 0.0326 0.3825 -0.9234
vn -0.3983 0.7000 -0.5927
vn -0.2258 0.7063 -0.6709
vn -0.4020 0.9065 -0.1290
vn -0.2052 0.9201 -0.3338
vn -0.0918 0.9708 0.2216
vn 0.0578 0.9885 -0.1396
vn 0.3673 0.8867 0.2808
vn 0.3737 0.9022 -0.2153
vn 0.7402 0.6716 0.0321
vn 0.5248 0.6805 -0.5114
vn 0.8507 0.3611 -0.3820
vn 0.4003 0.3636 -0.8412
vn 0.6675 0.0000 -0.7446
vn 0.0545 0.0000 -0.9985
vn 0.3118 -0.3636 -0.8778
vn -0.3314 -0.3611 -0.8717
vn -0.0094 -0.6805 -0.7327
vn -0.5461 -0.6716 -0.5007
vn -0.1120 -0.9022 -0.4165
vn -0.4583 -0.8867 -0.0612
vn 0.0578 -0.9885 -0.1396
vn 0.3811 -0.9201 -0.0910
vn -0.0918 -0.9708 0.2216
vn -0.1930 -0.9065 0.3755
vn 0.3147 -0.7063 0.6341
vn 0.1375 -0.7000 0.7008
vn 0.6760 -0.3825 0.6299
vn 0.5880 -0.3812 0.7134
vn 0.9412 0.0000 0.3378
vn 0.9044 0.0000 0.4267
vn 0.9202 0.3812 -0.0887
vn 0.9234 0.3825 0.0326
vn 0.5927 0.7000 -0.3983
vn 0.6709 0.7063 -0.2258
vn 0.1290 0.9065 -0.4020
vn 0.3338 0.9201 -0.2052
vn -0.2216 0.9708 -0.0918
vn 0.1396 0.9885 0.0578
vn -0.2808 0.8867 0.3673
vn 0.2153 0.9022 0.3737
vn -0.0321 0.6716 0.7402
vn 0.5114 0.6805 0.5248
vn 0.3820 0.3611 0.8507
vn 0.8412 0.3636 0.4003
vn 0.7446 0.0000 0.6675
vn 0.9985 0.0000 0.0545
vn 0.8778 -0.3636 0.3118
vn 0.8717 -0.3611 -0.3314
vn 0.7327 -0.6805 -0.0094
vn 0.5007 -0.6716 -0.5461
vn 0.4165 -0.9022 -0.1120
vn 0.0612 -0.8867 -0.4583
vn 0.1396 -0.9885 0.0578
vn -0.2216 -0.9708 -0.0918
vn 0.0910 -0.9201 0.3811
vn -0.3755 -0.9065 -0.1930
vn -0.6341 -0.7063 0.3147
vn -0.7008 -0.7000 0.1375
vn -0.6299 -0.3825 0.6760
vn -0.7134 -0.3812 0.5880
vn -0.3378 0.0000 0.9412
vn -0.4267 0.0000 0.9044
vn 0.0887 0.3812 0.9202
vn -0.0326 0.3825 0.9234
vn 0.3983 0.7000 0.5927
vn 0.2258 0.7063 0.6709
vn 0.4020 0.9065 0.1290
vn 0.2052 0.9201 0.3338
vn 0.0918 0.9708 -0.2216
vn -0.0578 0.9885 0.1396
vn -0.3673 0.8867 -0.2808
vn -0.3737 0.9022 0.2153
vn -0.7402 0.6716 -0.0321
vn -0.5248 0.6805 0.5114
vn -0.8507 0.3611 0.3820
vn -0.4003 0.3636 0.8412
vn -0.6675 0.0000 0.7446
vn -0.0545 0.0000 0.9985
vn -0.3118 -0.3636 0.8778
vn 0.3314 -0.3611 0.8717
vn 0.0094 -0.6805 0.7327
vn 0.5461 -0.6716 0.5007
vn 0.1120 -0.9022 0.4165
vn 0.4583 -0.8867 0.0612
vn -0.0578 -0.9885 0.1396
vn 0.0918 -0.9708 -0.2216
vn -0.3811 -0.9201 0.0910
vn 0.1930 -0.9065 -0.3755
vn -0.3147 -0.7063 -0.6341
vn -0.1375 -0.7000 -0.7008
vn -0.6760 -0.3825 -0.6299
vn -0.5880 -0.3812 -0.7134
vn -0.9412 0.0000 -0.3378
vn -0.9044 0.0000 -0.4267
vn -0.9202 0.3812 0.0887
vn -0.9234 0.3825 -0.0326
vn -0.5927 0.7000 0.3983
vn -0.6709 0.7063 0.2258
vn -0.1290 0.9065 0.4020
vn -0.3338 0.9201 0.2052
vn 0.2216 0.9708 0.0918
vn -0.1396 0.9885 -0.0578
vn 0.2808 0.8867 -0.3673
vn -0.2153 0.9022 -0.3737
vn 0.0321 0.6716 -0.7402
vn -0.5114 0.6805 -0.5248
vn -0.3820 0.3611 -0.8507
vn -0.8412 0.3636 -0.4003
vn -0.7446 0.0000 -0.6675
vn -0.9985 0.0000 -0.0545
vn -0.8778 -0.3636 -0.3118
vn -0.8717 -0.3611 0.3314
vn -0.7327 -0.6805 0.0094
vn -0.5007 -0.6716 0.5461
vn -0.4165 -0.9022 0.1120
vn -0.0612 -0.8867 0.4583
vn -0.1396 -0.9885 -0.0578
vn 0.2216 -0.9708 0.0918
vn -0.0910 -0.9201 -0.3811
usemtl None
s off
f 1//1 2//1 3//1
f 3//2 4//2 1//2
f 4//3 3//3 5//3
f 5//4 6//4 4//4
f 6//5 5//5 7//5
f 7//6 8//6 6//6
f 8//7 7//7 9//7
f 9//8 10//8 8//8
f 10//9 9//9 11//9
f 11//10 12//10 10//10
f 12//11 11//11 13//11
f 13//12 14//12 12//12
f 14//13 13//13 15//13
f 15//14 16//14 14//14
f 16//15 15//15 17//15
f 17//16 18//16 16//16
f 18//17 17//17 19//17
f 19//18 20//18 18//18
f 20//19 19//19 21//19
f 21//20 22//20 20//20
f 22//21 21//21 23//21
f 23//22 24//22 22//22
f 24//23 23//23 25//23
f 25//24 26//24 24//24
f 26//25 25//25 27//25
f 27//26 28//26 26//26
f 28//27 27//27 29//27
f 29//28 30//28 28//28
f 30//29 29//29 31//29
f 31//30 32//30 30//30
f 2//31 1//31 32//31
f 32//32 31//32 2//32
f 33//33 34//33 35//33
f 35//34 36//34 33//34
f 36//35 35//35 37//35
f 37//36 38//36 36//36
f 38//37 37//37 39//37
f 39//38 40//38 38//38
f 40//39 39//39 41//39
f 41//40 42//40 40//40
f 42//41 41//41 43//41
f 43//42 44//42 42//42
f 44//43 43//43 45//43
f 45//44 46//44 44//44
f 46//45 45//45 47//45
f 47//46 48//46 46//46
f 48//47 47//47 49//47
f 49//48 50//48 48//48
f 50//49 49//49 51//49
f 51//50 52//50 50//50
f 52//51 51//51 53//51
f 53//52 54//52 52//52
f 54//53 53//53 55//53
f 55//54 56//54 54//54
f 56//55 55//55 57//55
f 57//56 58//56 56//56
f 58//57 57//57 59//57
f 59//58 60//58 58//58
f 60//59 59//59 61//59
f 61//60 62//60 60//60
f 62//61 61//61 63//61
f 63//62 64//62 62//62
f 64//63 63//63 34//63
f 34//64 33//64 64//64
f 65//65 66//65 67//65
f 67//66 68//66 65//66
f 68//67 67//67 69//67
f 69//68 70//68 68//68
f 70//69 69//69 71//69
f 71//70 72//70 70//70
f 72//71 71//71 73//71
f 73//72 74//72 72//72
f 74//73 73//73 75//73
f 75//74 76//74 74//74
f 76//75 75//75 77//75
f 77//76 78//76 76//76
f 78//77 77//77 79//77
f 79//78 80//78 78//78
f 80//79 79//79 81//79
f 81//80 82//80 80//80
f 82//81 81//81 83//81
f 83//82 84//82 82//82
f 84//83 83//83 85//83
f 85//84 86//84 84//84
f 86//85 85//85 87//85
f 87//86 88//86 86//86
f 88//87 87//87 89//87
f 89//88 90//88 88//88
f 90//89 89//89 91//89
f 91//90 92//90 90//90
f 92//91 91//91 93//91
f 93//92 94//92 92//92
f 94//93 93//93 95//93
f 95//94 96//94 94//94
f 96//95 95//95 66//95
f 66//96 65//96 96//96
f 97//97 98//97 99//97
f 99//98 100//98 97//98
f 100//99 99//99 101//99
f 101//100 102//100 100//100
f 102//101 101//101 103//101
f 103//102 104//102 102//102
f 104//103 103//103 105//103
f 105//104 106//104 104//104
f 106//105 105//105 107//105
f 107//106 108//106 106//106
f 108//107 107//107 109//107
f 109//108 110//108 108//108
f 110//109 109//109 111//109
f 111//110 112//110 110//110
f 112//111 111//111 113//111
f 113//112 114//112 112//112
f 114//113 113//113 115//113
f 115//114 116//114 114//114
f 116//115 115//115 117//115
f 117//116 118//116 116//116
f 118//117 117//117 119//117
f 119//118 120//118 118//118
f 120//119 119//119 121//119
f 121//120 122//120 120//120
f 122//121 121//121 123//121
f 123//122 124//122 122//122
f 124//123 123//123 125//123
f 125//124 126//124 124//124
f 126//125 125//125 127//125
f 127//126 128//126 126//126
f 128//127 127//127 98//127
f 98//128 97//128 128//128
