# Blender v2.79 (sub 0) OBJ File: ''
# www.blender.org
mtllib star.mtl
o star_star.001
v 0.600000 0.050000 0.000000
v 0.000000 0.050000 0.000000
v 0.809017 0.050000 0.587786
v 0.809017 0.050000 -0.587785
v 0.185410 0.050000 -0.570634
v -0.309017 0.050000 -0.951057
v -0.485410 0.050000 -0.352671
v -1.000000 0.050000 0.000000
v -0.485410 0.050000 0.352671
v -0.309017 0.050000 0.951057
v 0.185410 0.050000 0.570634
v 0.600000 -0.050000 0.000000
v 0.809017 -0.050000 0.587786
v 0.809017 -0.050000 -0.587785
v 0.185410 -0.050000 -0.570634
v -0.309017 -0.050000 -0.951057
v -0.485410 -0.050000 -0.352671
v -1.000000 -0.050000 0.000000
v -0.485410 -0.050000 0.352671
v -0.309017 -0.050000 0.951057
v 0.185410 -0.050000 0.570634
v 0.000000 -0.050000 0.000000
vn 0.0000 1.0000 -0.0000
vn 0.9422 0.0000 -0.3350
vn 0.9422 0.0000 0.3350
vn -0.0275 0.0000 -0.9996
vn 0.6098 0.0000 -0.7926
vn -0.9592 0.0000 -0.2828
vn -0.5653 0.0000 -0.8249
vn -0.5653 0.0000 0.8249
vn -0.9592 0.0000 0.2828
vn 0.6098 0.0000 0.7926
vn -0.0275 0.0000 0.9996
vn 0.0000 -1.0000 -0.0000
usemtl None
s off
f 1//1 2//1 3//1
f 2//1 1//1 4//1
f 2//1 4//1 5//1
f 2//1 5//1 6//1
f 2//1 6//1 7//1
f 2//1 7//1 8//1
f 2//1 8//1 9//1
f 2//1 9//1 10//1
f 2//1 10//1 11//1
f 2//1 11//1 3//1
f 12//2 1//2 3//2
f 3//2 13//2 12//2
f 1//3 12//3 14//3
f 14//3 4//3 1//3
f 4//4 14//4 15//4
f 15//4 5//4 4//4
f 5//5 15//5 16//5
f 16//5 6//5 5//5
f 6//6 16//6 17//6
f 17//6 7//6 6//6
f 7//7 17//7 18//7
f 18//7 8//7 7//7
f 8//8 18//8 19//8
f 19//8 9//8 8//8
f 9//9 19//9 20//9
f 20//9 10//9 9//9
f 10//10 20//10 21//10
f 21//10 11//10 10//10
f 11//11 21//11 13//11
f 13//11 3//11 11//11
f 22//12 12//12 13//12
f 12//12 22//12 14//12
f 14//12 22//12 15//12
f 15//12 22//12 16//12
f 16//12 22//12 17//12
f 17//12 22//12 18//12
f 18//12 22//12 19//12
f 19//12 22//12 20//12
f 20//12 22//12 21//12
f 21//12 22//12 13//12
